<svg width="1920" height="1080" viewBox="0 0 1920 1080" fill="none" xmlns="http://www.w3.org/2000/svg">
<g clip-path="url(#clip0_2_96)">
<path d="M1920 0H0V1080H1920V0Z" fill="#6C63FF"/>
<path d="M0 792L24.6 816.6C49.4 841.4 98.6 890.6 148 878C197.4 865.4 246.6 790.6 296 800.4C345.4 810 394.6 904 443.6 942.4C492.6 980.6 541.4 963.4 590.4 924.6C639.4 886 688.6 826 738 792.6C787.4 759.4 836.6 752.6 886 765C935.4 777.4 984.6 808.6 1034 815.4C1083.4 822 1132.6 804 1182 798.4C1231.4 792.6 1280.6 799.4 1329.6 831C1378.6 862.6 1427.4 919.4 1476.4 930.6C1525.4 942 1574.6 908 1624 902.6C1673.4 897.4 1722.6 920.6 1772 904.4C1821.4 888 1870.6 832 1895.4 804L1920 776V1082H1895.4C1870.6 1082 1821.4 1082 1772 1082C1722.6 1082 1673.4 1082 1624 1082C1574.6 1082 1525.4 1082 1476.4 1082C1427.4 1082 1378.6 1082 1329.6 1082C1280.6 1082 1231.4 1082 1182 1082C1132.6 1082 1083.4 1082 1034 1082C984.6 1082 935.4 1082 886 1082C836.6 1082 787.4 1082 738 1082C688.6 1082 639.4 1082 590.4 1082C541.4 1082 492.6 1082 443.6 1082C394.6 1082 345.4 1082 296 1082C246.6 1082 197.4 1082 148 1082C98.6 1082 49.4 1082 24.6 1082H0V792Z" fill="white"/>
</g>
<defs>
<clipPath id="clip0_2_96">
<rect width="1920" height="1080" fill="white"/>
</clipPath>
</defs>
</svg>
