<svg width="1920" height="1080" viewBox="0 0 1920 1080" fill="none" xmlns="http://www.w3.org/2000/svg">
<g clip-path="url(#clip0_2_120)">
<path d="M1920 0H0V1080H1920V0Z" fill="white"/>
<path d="M0 734L45.6 718.4C91.4 702.6 182.6 671.4 274 677C365.4 682.6 456.6 725.4 548 750.6C639.4 776 730.6 784 822.4 763.6C914 743.4 1006 694.6 1097.6 686.4C1189.4 678 1280.6 710 1372 733C1463.4 756 1554.6 770 1646 758.4C1737.4 746.6 1828.6 709.4 1874.4 690.6L1920 672V1082H1874.4C1828.6 1082 1737.4 1082 1646 1082C1554.6 1082 1463.4 1082 1372 1082C1280.6 1082 1189.4 1082 1097.6 1082C1006 1082 914 1082 822.4 1082C730.6 1082 639.4 1082 548 1082C456.6 1082 365.4 1082 274 1082C182.6 1082 91.4 1082 45.6 1082H0V734Z" fill="#6C63FF"/>
<path d="M0 860L45.6 838.6C91.4 817.4 182.6 774.6 274 766.6C365.4 758.6 456.6 785.4 548 787.4C639.4 789.4 730.6 766.6 822.4 762.4C914 758 1006 772 1097.6 788C1189.4 804 1280.6 822 1372 835C1463.4 848 1554.6 856 1646 855.6C1737.4 855.4 1828.6 846.6 1874.4 842.4L1920 838V1082H1874.4C1828.6 1082 1737.4 1082 1646 1082C1554.6 1082 1463.4 1082 1372 1082C1280.6 1082 1189.4 1082 1097.6 1082C1006 1082 914 1082 822.4 1082C730.6 1082 639.4 1082 548 1082C456.6 1082 365.4 1082 274 1082C182.6 1082 91.4 1082 45.6 1082H0V860Z" fill="#5E59D0"/>
<path d="M0 836L45.6 838.6C91.4 841.4 182.6 846.6 274 851.6C365.4 856.6 456.6 861.4 548 855C639.4 848.6 730.6 831.4 822.4 826C914 820.6 1006 827.4 1097.6 835.6C1189.4 844 1280.6 854 1372 854C1463.4 854 1554.6 844 1646 837.6C1737.4 831.4 1828.6 828.6 1874.4 827.4L1920 826V1082H1874.4C1828.6 1082 1737.4 1082 1646 1082C1554.6 1082 1463.4 1082 1372 1082C1280.6 1082 1189.4 1082 1097.6 1082C1006 1082 914 1082 822.4 1082C730.6 1082 639.4 1082 548 1082C456.6 1082 365.4 1082 274 1082C182.6 1082 91.4 1082 45.6 1082H0V836Z" fill="#524EA3"/>
<path d="M0 922L45.6 930.6C91.4 939.4 182.6 956.6 274 961.6C365.4 966.6 456.6 959.4 548 942.4C639.4 925.4 730.6 898.6 822.4 896.4C914 894 1006 916 1097.6 918.6C1189.4 921.4 1280.6 904.6 1372 896.4C1463.4 888 1554.6 888 1646 892C1737.4 896 1828.6 904 1874.4 908L1920 912V1082H1874.4C1828.6 1082 1737.4 1082 1646 1082C1554.6 1082 1463.4 1082 1372 1082C1280.6 1082 1189.4 1082 1097.6 1082C1006 1082 914 1082 822.4 1082C730.6 1082 639.4 1082 548 1082C456.6 1082 365.4 1082 274 1082C182.6 1082 91.4 1082 45.6 1082H0V922Z" fill="#464377"/>
<path d="M0 962L45.6 967.6C91.4 973.4 182.6 984.6 274 985.4C365.4 986 456.6 976 548 977C639.4 978 730.6 990 822.4 997C914 1004 1006 1006 1097.6 1002.6C1189.4 999.4 1280.6 990.6 1372 991C1463.4 991.4 1554.6 1000.6 1646 1003C1737.4 1005.4 1828.6 1000.6 1874.4 998.4L1920 996V1082H1874.4C1828.6 1082 1737.4 1082 1646 1082C1554.6 1082 1463.4 1082 1372 1082C1280.6 1082 1189.4 1082 1097.6 1082C1006 1082 914 1082 822.4 1082C730.6 1082 639.4 1082 548 1082C456.6 1082 365.4 1082 274 1082C182.6 1082 91.4 1082 45.6 1082H0V962Z" fill="#39374D"/>
</g>
<defs>
<clipPath id="clip0_2_120">
<rect width="1920" height="1080" fill="white"/>
</clipPath>
</defs>
</svg>
